<svg xmlns="http://www.w3.org/2000/svg" viewBox="0 0 25.28 25.28">
  <title>info-white</title>
  <g id="Layer_2" data-name="Layer 2">
    <g id="Layer_2-2" data-name="Layer 2">
      <g>
        <circle cx="12.64" cy="12.64" r="12.14" fill="none" stroke="#0078d4" stroke-miterlimit="10"/>
        <g>
          <path d="M12.63,8.54a1.43,1.43,0,0,1-1-.41,1.39,1.39,0,0,1-.43-1,1.44,1.44,0,0,1,1.46-1.47A1.46,1.46,0,0,1,13.68,6a1.47,1.47,0,0,1,0,2.08A1.44,1.44,0,0,1,12.63,8.54Z" fill="#0078d4"/>
          <path d="M13.52,19.67H11.76a.26.26,0,0,1-.24-.28V11.44a.26.26,0,0,1,.24-.28h1.77a.26.26,0,0,1,.24.28v7.94A.26.26,0,0,1,13.52,19.67Z" fill="#0078d4"/>
        </g>
      </g>
    </g>
  </g>
</svg>
