<svg xmlns="http://www.w3.org/2000/svg" viewBox="0 0 24.28 24.28">
  <title>info-blue</title>
  <g id="Layer_2" data-name="Layer 2">
    <g id="Layer_2-2" data-name="Layer 2">
      <g>
        <circle cx="12.14" cy="12.14" r="12.14" fill="#0078d4"/>
        <g>
          <path d="M12.13,8a1.43,1.43,0,0,1-1-.41,1.39,1.39,0,0,1-.43-1,1.44,1.44,0,0,1,1.46-1.47,1.46,1.46,0,0,1,1.05.42,1.47,1.47,0,0,1,0,2.08A1.44,1.44,0,0,1,12.13,8Z" fill="#fff"/>
          <path d="M13,19.17H11.26a.26.26,0,0,1-.24-.28V10.94a.26.26,0,0,1,.24-.28H13a.26.26,0,0,1,.24.28v7.94A.26.26,0,0,1,13,19.17Z" fill="#fff"/>
        </g>
      </g>
    </g>
  </g>
</svg>
