<svg xmlns="http://www.w3.org/2000/svg" viewBox="0 0 158.54 33.86">
  <title>ms-logo</title>
  <g id="Layer_2" data-name="Layer 2">
    <g id="Layer_2-2" data-name="Layer 2">
      <g>
        <path d="M0,0H16.11q0,8.05,0,16.11H0V0Z" fill="#ef5125"/>
        <path d="M17.75,0H33.86q0,8.05,0,16.11H17.75q0-8.05,0-16.11Z" fill="#80ba42"/>
        <path d="M145.24,6.14a6.32,6.32,0,0,1,5.08-.6c0,1,0,2,0,3a3.32,3.32,0,0,0-2.57-.24,2,2,0,0,0-1.16,1.63,21.92,21.92,0,0,0-.06,2.61h5.1c0-1.1,0-2.21,0-3.31,1.15-.33,2.3-.7,3.45-1,0,1.45,0,2.91,0,4.36,1.15,0,2.3,0,3.45,0v2.83c-1.15,0-2.31,0-3.46,0,0,1.63,0,3.25,0,4.88,0,.9,0,1.81.06,2.7a1.75,1.75,0,0,0,.75,1.39,2.59,2.59,0,0,0,2.65-.25v2.86a6.81,6.81,0,0,1-3.18.49,3.87,3.87,0,0,1-2.75-1.26,5.2,5.2,0,0,1-1-3.32c0-2.5,0-5,0-7.49h-5.1q0,5.87,0,11.75H143q0-5.87,0-11.75c-.81,0-1.62,0-2.42,0,0-.93,0-1.86,0-2.79.8,0,1.61,0,2.41,0a14.85,14.85,0,0,1,.24-3.71,4.75,4.75,0,0,1,2-2.68Z" fill="#787878"/>
        <path d="M70.66,6.34A2.13,2.13,0,0,1,72.59,7a2,2,0,0,1,.24,2.26,2.17,2.17,0,0,1-2.32,1,2,2,0,0,1-1.62-1.94,2,2,0,0,1,1.77-2Z" fill="#787878"/>
        <path d="M44,6.77H49q2.37,6,4.74,12c.4,1,.78,2,1.2,3,2-5,4.09-10,6.1-15,1.62,0,3.25,0,4.87,0q0,10.16,0,20.31c-1.17,0-2.34,0-3.52,0,0-5,0-10,0-15,0-.22,0-.45,0-.67a2.68,2.68,0,0,0-.18.33c-2,5.11-4.06,10.21-6.07,15.33-.83,0-1.67,0-2.5,0C51.59,22,49.54,16.85,47.47,11.73c-.05-.11-.11-.21-.18-.31,0,2.19,0,4.38,0,6.57q0,4.55,0,9.09H44q0-10.16,0-20.31Z" fill="#787878"/>
        <path d="M80.24,12.51a9.54,9.54,0,0,1,5.17,0,4.18,4.18,0,0,1,1,.41c0,1.11,0,2.22,0,3.33a5.53,5.53,0,0,0-4-1.22,4.09,4.09,0,0,0-2.89,1.61,5.62,5.62,0,0,0-.92,4A4.37,4.37,0,0,0,80,23.58a4.41,4.41,0,0,0,3.26,1,6.64,6.64,0,0,0,3.13-1.28c0,1.05,0,2.1,0,3.15a8.47,8.47,0,0,1-4.76,1,7.06,7.06,0,0,1-4.54-1.89A7.26,7.26,0,0,1,75,20.65a8.82,8.82,0,0,1,1.38-5.4,7,7,0,0,1,3.86-2.73Z" fill="#787878"/>
        <path d="M118.29,12.29a9.21,9.21,0,0,1,4.82.5c0,1.07,0,2.13,0,3.2a6.14,6.14,0,0,0-3.66-1.08,1.87,1.87,0,0,0-1.66.92,1.5,1.5,0,0,0,.5,1.78c1,.66,2.17.94,3.19,1.53a4.59,4.59,0,0,1,2,1.9,4.25,4.25,0,0,1-.91,4.9,6.66,6.66,0,0,1-4.85,1.47,10.36,10.36,0,0,1-3.54-.81c0-1.12,0-2.25,0-3.37a7.62,7.62,0,0,0,3.16,1.36,4.07,4.07,0,0,0,2.4-.22,1.39,1.39,0,0,0,.42-2,4.19,4.19,0,0,0-1.52-1,14.57,14.57,0,0,1-3-1.54,3.6,3.6,0,0,1-1.3-2,4.44,4.44,0,0,1,.48-3.47,5.19,5.19,0,0,1,3.47-2.13Z" fill="#787878"/>
        <path d="M94.2,12.75a3.93,3.93,0,0,1,3.23-.27c0,1.16,0,2.32,0,3.49a3.7,3.7,0,0,0-2.35-.55,2.89,2.89,0,0,0-2.18,1.74,6.44,6.44,0,0,0-.5,3q0,3.48,0,7H89q0-7.28,0-14.55c1.15,0,2.29,0,3.44,0,0,.83,0,1.67,0,2.5a4.46,4.46,0,0,1,1.8-2.28Z" fill="#787878"/>
        <path d="M69.21,12.53c1.15,0,2.31,0,3.47,0,0,4.85,0,9.7,0,14.55H69.21q0-7.28,0-14.55Z" fill="#787878"/>
        <path d="M111.87,15.92a6.16,6.16,0,0,0-3-3.08,9.24,9.24,0,0,0-5-.59,7,7,0,0,0-4.58,2.45,7.76,7.76,0,0,0-1.61,4.45,8.36,8.36,0,0,0,1.28,5.44,6.6,6.6,0,0,0,4,2.62,10,10,0,0,0,4.08,0,6.74,6.74,0,0,0,4-2.47,7.72,7.72,0,0,0,1.53-4.24A9.55,9.55,0,0,0,111.87,15.92Zm-3.36,6.68a3.18,3.18,0,0,1-1.71,1.68,4.7,4.7,0,0,1-2.84.12,3.48,3.48,0,0,1-2.18-1.8,6.72,6.72,0,0,1-.53-3.64,4.63,4.63,0,0,1,1.35-3,3.64,3.64,0,0,1,2.29-.9,3.75,3.75,0,0,1,2.91,1,4.7,4.7,0,0,1,1.2,3A7.63,7.63,0,0,1,108.51,22.61Z" fill="#787878"/>
        <path d="M139.77,16.35a6.22,6.22,0,0,0-3-3.39,9,9,0,0,0-5.17-.7,7.21,7.21,0,0,0-3.85,1.65,7.13,7.13,0,0,0-2.3,4.47,9.64,9.64,0,0,0,.55,5.06,6.46,6.46,0,0,0,3.54,3.43,9.37,9.37,0,0,0,4.91.41,6.8,6.8,0,0,0,4.28-2.5,8,8,0,0,0,1.58-5A9.28,9.28,0,0,0,139.77,16.35Zm-3.14,4.94a4.54,4.54,0,0,1-.9,2.14,3.26,3.26,0,0,1-2,1.09,4.6,4.6,0,0,1-2.49-.27,3.53,3.53,0,0,1-1.84-1.92,6.91,6.91,0,0,1-.41-3.17,5,5,0,0,1,1.06-2.9A3.56,3.56,0,0,1,132.55,15a3.82,3.82,0,0,1,2.79.82,4,4,0,0,1,1.26,2.32A8.84,8.84,0,0,1,136.63,21.28Z" fill="#787878"/>
        <path d="M0,17.75H16.11q0,8.05,0,16.1H0V17.75Z" fill="#349fd9"/>
        <path d="M17.75,17.75h16.1V33.86H17.75q0-8.05,0-16.1Z" fill="#fcb713"/>
      </g>
    </g>
  </g>
</svg>
